<svg width="60" height="60" viewBox="0 0 60 60" fill="none" xmlns="http://www.w3.org/2000/svg">
<path d="M52.5 15.9375H50.625V29.0625H52.5V15.9375Z" fill="#FDFEFE"/>
<path d="M2.00344 47.7975C2.04506 47.978 2.10022 48.155 2.16844 48.3272C2.19562 48.3928 2.23687 48.45 2.26781 48.5147C2.53985 49.1173 2.97994 49.6287 3.53531 49.9875C3.67203 50.0738 3.81421 50.1512 3.96094 50.2191C4.03312 50.2547 4.09875 50.3016 4.17375 50.3334C4.34106 50.398 4.51274 50.4506 4.6875 50.4909C4.75312 50.5078 4.81312 50.5359 4.87969 50.5491C5.12496 50.5992 5.37465 50.6247 5.625 50.625H30.9375V48.75H5.625C5.49906 48.75 5.37343 48.7375 5.25 48.7125C5.205 48.7031 5.16281 48.6844 5.11875 48.6722C5.04461 48.6542 4.97166 48.6317 4.90031 48.6047C4.8361 48.5739 4.77352 48.5398 4.71281 48.5025C4.67062 48.4781 4.62562 48.4594 4.58531 48.4331C4.4845 48.3642 4.39034 48.2861 4.30406 48.1997C4.21771 48.1136 4.13985 48.0194 4.07156 47.9184C4.03594 47.865 4.00969 47.805 3.97781 47.7478C3.94594 47.6906 3.92062 47.6541 3.89906 47.6006C3.86817 47.5219 3.8431 47.4411 3.82406 47.3587C3.81375 47.3222 3.79781 47.2875 3.79031 47.2491C3.7349 46.9769 3.74065 46.6959 3.80713 46.4262C3.87361 46.1565 3.99917 45.905 4.17473 45.6898C4.35028 45.4746 4.57146 45.3011 4.82227 45.1818C5.07308 45.0625 5.34727 45.0004 5.625 45H8.4375C8.68614 45 8.9246 44.9012 9.10041 44.7254C9.27623 44.5496 9.375 44.3111 9.375 44.0625V11.25H42.1875V9.375H9.375V4.6875C9.375 4.43886 9.27623 4.2004 9.10041 4.02459C8.9246 3.84877 8.68614 3.75 8.4375 3.75H5.625C4.63044 3.75 3.67661 4.14509 2.97335 4.84835C2.27009 5.55161 1.875 6.50544 1.875 7.5V46.875C1.87501 47.1269 1.90045 47.3782 1.95094 47.625C1.96313 47.6831 1.98844 47.7384 2.00344 47.7975ZM3.75 13.125V7.5C3.75 7.00272 3.94754 6.52581 4.29917 6.17417C4.65081 5.82254 5.12772 5.625 5.625 5.625H7.5V43.125H5.625C4.96647 43.124 4.31946 43.2977 3.75 43.6284V13.125Z" fill="#FDFEFE"/>
<path d="M33.75 18.75H23.4375C23.3003 18.7508 23.165 18.7817 23.0411 18.8405C22.9172 18.8993 22.8077 18.9846 22.7203 19.0903C22.7203 19.0959 22.7091 19.0969 22.7053 19.1016L15.2053 28.4766C15.1564 28.5401 15.1155 28.6093 15.0834 28.6828C15.0834 28.6894 15.0759 28.6941 15.0731 28.7006C15.0323 28.8037 15.0101 28.9132 15.0075 29.0241C15.0075 29.0381 15 29.0494 15 29.0625V40.3125C15 40.5611 15.0988 40.7996 15.2746 40.9754C15.4504 41.1512 15.6889 41.25 15.9375 41.25H40.3125V39.375H31.875V30H45V35.625H46.875V29.0625C46.875 29.0494 46.8675 29.0381 46.8675 29.0241C46.865 28.9135 46.8428 28.8043 46.8019 28.7016C46.8019 28.6931 46.7925 28.6875 46.7897 28.68C46.7586 28.6076 46.7183 28.5395 46.6697 28.4775L43.8572 24.9581L42.3928 26.1281L43.9866 28.125H31.3884L27.3881 23.1253L25.3884 20.625H33.75V18.75ZM25.3125 39.375H21.5625V33.75H25.3125V39.375ZM30 39.375H27.1875V32.8125C27.1875 32.5639 27.0887 32.3254 26.9129 32.1496C26.7371 31.9738 26.4986 31.875 26.25 31.875H20.625C20.3764 31.875 20.1379 31.9738 19.9621 32.1496C19.7863 32.3254 19.6875 32.5639 19.6875 32.8125V39.375H16.875V30H30V39.375ZM27.1369 25.8131L28.9866 28.125H17.8884L23.4375 21.1875L27.1369 25.8131Z" fill="#FDFEFE"/>
<path d="M36.5625 31.875C36.3139 31.875 36.0754 31.9738 35.8996 32.1496C35.7238 32.3254 35.625 32.5639 35.625 32.8125V36.5625C35.625 36.8111 35.7238 37.0496 35.8996 37.2254C36.0754 37.4012 36.3139 37.5 36.5625 37.5H40.3125C40.5611 37.5 40.7996 37.4012 40.9754 37.2254C41.1512 37.0496 41.25 36.8111 41.25 36.5625V32.8125C41.25 32.5639 41.1512 32.3254 40.9754 32.1496C40.7996 31.9738 40.5611 31.875 40.3125 31.875H36.5625ZM39.375 35.625H37.5V33.75H39.375V35.625Z" fill="#FDFEFE"/>
<path d="M57.5464 27.2587C57.375 27.1878 57.1865 27.1692 57.0046 27.2054C56.8227 27.2416 56.6556 27.331 56.5245 27.4622L27.462 56.5247C27.3309 56.6558 27.2417 56.8228 27.2055 57.0046C27.1693 57.1865 27.1879 57.3749 27.2589 57.5462C27.3298 57.7175 27.4499 57.8639 27.6041 57.9669C27.7582 58.0699 27.9394 58.1249 28.1248 58.125H57.1873C57.4359 58.125 57.6744 58.0262 57.8502 57.8504C58.026 57.6746 58.1248 57.4361 58.1248 57.1875V28.125C58.1248 27.9396 58.0699 27.7583 57.967 27.6041C57.864 27.4499 57.7176 27.3297 57.5464 27.2587ZM56.2498 56.25H30.3879L56.2498 30.3881V56.25Z" fill="#FDFEFE"/>
<path d="M41.3214 51.9216C41.3924 52.0929 41.5126 52.2392 41.6668 52.3422C41.8209 52.4452 42.0022 52.5001 42.1876 52.5H51.5626C51.8112 52.5 52.0497 52.4013 52.2255 52.2255C52.4013 52.0496 52.5001 51.8112 52.5001 51.5625V42.1875C52.5001 42.0022 52.4451 41.8209 52.342 41.6668C52.239 41.5127 52.0926 41.3925 51.9213 41.3216C51.7501 41.2507 51.5616 41.2321 51.3798 41.2682C51.1979 41.3044 51.0309 41.3937 50.8998 41.5247L41.5248 50.8997C41.3936 51.0308 41.3043 51.1979 41.268 51.3798C41.2318 51.5617 41.2504 51.7503 41.3214 51.9216ZM50.6251 44.4507V50.625H44.4507L50.6251 44.4507Z" fill="#FDFEFE"/>
<path d="M54.1 2.14973C53.9242 1.97398 53.6858 1.87524 53.4372 1.87524C53.1886 1.87524 52.9502 1.97398 52.7744 2.14973L35.8994 19.0247C35.797 19.128 35.7197 19.2534 35.6735 19.3913L34.736 22.2038C34.6809 22.3689 34.6729 22.546 34.7128 22.7154C34.7527 22.8848 34.839 23.0397 34.9619 23.1629L35.2366 23.4375L33.0869 25.5872L34.4125 26.9129L36.5622 24.7632L36.8369 25.0379C37.0127 25.2137 37.2511 25.3125 37.4997 25.3125C37.6004 25.3124 37.7004 25.2963 37.796 25.2647L40.6085 24.3272C40.7466 24.2811 40.8721 24.2034 40.975 24.1004L57.85 7.22536C58.0258 7.04955 58.1245 6.81114 58.1245 6.56254C58.1245 6.31395 58.0258 6.07554 57.85 5.89973L54.1 2.14973ZM37.7538 23.3025L36.6982 22.2469L37.2063 20.7197L39.281 22.7935L37.7538 23.3025ZM40.781 21.6432L38.3566 19.2188L42.1872 15.3882L44.6116 17.8125L40.781 21.6432ZM45.9372 16.4869L43.5129 14.0625L53.4372 4.13817L55.8616 6.56254L45.9372 16.4869Z" fill="#FDFEFE"/>
<path d="M11.25 41.25V44.0625C11.25 44.3111 11.3488 44.5496 11.5246 44.7254C11.7004 44.9012 11.9389 45 12.1875 45H15V43.125H13.125V41.25H11.25Z" fill="#FDFEFE"/>
<path d="M15 13.125H12.1875C11.9389 13.125 11.7004 13.2238 11.5246 13.3996C11.3488 13.5754 11.25 13.8139 11.25 14.0625V16.875H13.125V15H15V13.125Z" fill="#FDFEFE"/>
</svg>
