<svg width="100" height="100" viewBox="0 0 100 100" fill="none" xmlns="http://www.w3.org/2000/svg">
<path d="M87.5 26.5625H84.375V48.4375H87.5V26.5625Z" fill="#88530D"/>
<path d="M3.33906 79.6625C3.40844 79.9633 3.50037 80.2584 3.61406 80.5453C3.65937 80.6547 3.72812 80.75 3.77969 80.8578C4.23308 81.8622 4.96656 82.7145 5.89219 83.3125C6.12005 83.4563 6.35701 83.5853 6.60156 83.6984C6.72187 83.7578 6.83125 83.8359 6.95625 83.8891C7.23511 83.9967 7.52124 84.0844 7.8125 84.1516C7.92188 84.1797 8.02187 84.2266 8.13281 84.2484C8.5416 84.3321 8.95775 84.3745 9.375 84.375H51.5625V81.25H9.375C9.1651 81.2501 8.95572 81.2291 8.75 81.1875C8.675 81.1719 8.60469 81.1406 8.53125 81.1203C8.40769 81.0904 8.2861 81.0528 8.16719 81.0078C8.06017 80.9564 7.95586 80.8996 7.85469 80.8375C7.78437 80.7969 7.70937 80.7656 7.64219 80.7219C7.47416 80.6071 7.31723 80.4768 7.17344 80.3328C7.02951 80.1894 6.89974 80.0324 6.78594 79.8641C6.72656 79.775 6.68281 79.675 6.62969 79.5797C6.57656 79.4844 6.53437 79.4234 6.49844 79.3344C6.44695 79.2032 6.40517 79.0685 6.37344 78.9313C6.35625 78.8703 6.32969 78.8125 6.31719 78.7484C6.22484 78.2948 6.23441 77.8264 6.34521 77.377C6.45601 76.9275 6.66528 76.5083 6.95788 76.1497C7.25047 75.791 7.6191 75.5018 8.03712 75.3029C8.45514 75.1041 8.91211 75.0006 9.375 75H14.0625C14.4769 75 14.8743 74.8354 15.1674 74.5424C15.4604 74.2493 15.625 73.8519 15.625 73.4375V18.75H70.3125V15.625H15.625V7.8125C15.625 7.3981 15.4604 7.00067 15.1674 6.70765C14.8743 6.41462 14.4769 6.25 14.0625 6.25H9.375C7.7174 6.25 6.12769 6.90848 4.95558 8.08058C3.78348 9.25268 3.125 10.8424 3.125 12.5V78.125C3.12502 78.5449 3.16742 78.9637 3.25156 79.375C3.27188 79.4719 3.31406 79.5641 3.33906 79.6625ZM6.25 21.875V12.5C6.25 11.6712 6.57924 10.8763 7.16529 10.2903C7.75134 9.70424 8.5462 9.375 9.375 9.375H12.5V71.875H9.375C8.27745 71.8733 7.19909 72.1628 6.25 72.7141V21.875Z" fill="#88530D"/>
<path d="M56.25 31.25H39.0625C38.8339 31.2513 38.6084 31.3028 38.4018 31.4008C38.1953 31.4988 38.0128 31.641 37.8672 31.8172C37.8672 31.8266 37.8484 31.8281 37.8422 31.8359L25.3422 47.4609C25.2607 47.5668 25.1924 47.6822 25.1391 47.8047C25.1391 47.8156 25.1266 47.8234 25.1219 47.8344C25.0538 48.0062 25.0168 48.1887 25.0125 48.3734C25.0125 48.3969 25 48.4156 25 48.4375V67.1875C25 67.6019 25.1646 67.9993 25.4576 68.2924C25.7507 68.5854 26.1481 68.75 26.5625 68.75H67.1875V65.625H53.125V50H75V59.375H78.125V48.4375C78.125 48.4156 78.1125 48.3969 78.1125 48.3734C78.1083 48.1892 78.0713 48.0072 78.0031 47.8359C78.0031 47.8219 77.9875 47.8125 77.9828 47.8C77.9311 47.6793 77.8638 47.5658 77.7828 47.4625L73.0953 41.5969L70.6547 43.5469L73.3109 46.875H52.3141L45.6469 38.5422L42.3141 34.375H56.25V31.25ZM42.1875 65.625H35.9375V56.25H42.1875V65.625ZM50 65.625H45.3125V54.6875C45.3125 54.2731 45.1479 53.8757 44.8549 53.5826C44.5618 53.2896 44.1644 53.125 43.75 53.125H34.375C33.9606 53.125 33.5632 53.2896 33.2701 53.5826C32.9771 53.8757 32.8125 54.2731 32.8125 54.6875V65.625H28.125V50H50V65.625ZM45.2281 43.0219L48.3109 46.875H29.8141L39.0625 35.3125L45.2281 43.0219Z" fill="#88530D"/>
<path d="M60.9375 53.125C60.5231 53.125 60.1257 53.2896 59.8326 53.5826C59.5396 53.8757 59.375 54.2731 59.375 54.6875V60.9375C59.375 61.3519 59.5396 61.7493 59.8326 62.0424C60.1257 62.3354 60.5231 62.5 60.9375 62.5H67.1875C67.6019 62.5 67.9993 62.3354 68.2924 62.0424C68.5854 61.7493 68.75 61.3519 68.75 60.9375V54.6875C68.75 54.2731 68.5854 53.8757 68.2924 53.5826C67.9993 53.2896 67.6019 53.125 67.1875 53.125H60.9375ZM65.625 59.375H62.5V56.25H65.625V59.375Z" fill="#88530D"/>
<path d="M95.9109 45.4312C95.6253 45.313 95.3111 45.282 95.0079 45.3424C94.7047 45.4027 94.4263 45.5517 94.2078 45.7703L45.7703 94.2078C45.5518 94.4263 45.4031 94.7047 45.3428 95.0078C45.2825 95.3108 45.3135 95.6249 45.4317 95.9104C45.55 96.1959 45.7502 96.4399 46.0071 96.6116C46.264 96.7833 46.566 96.8749 46.875 96.875H95.3125C95.7269 96.875 96.1243 96.7104 96.4173 96.4174C96.7104 96.1243 96.875 95.7269 96.875 95.3125V46.875C96.875 46.566 96.7835 46.2639 96.6119 46.0069C96.4403 45.7499 96.1964 45.5496 95.9109 45.4312ZM93.75 93.75H50.6468L93.75 50.6469V93.75Z" fill="#88530D"/>
<path d="M68.8687 86.5359C68.9871 86.8214 69.1874 87.0653 69.4444 87.2369C69.7014 87.4085 70.0035 87.5001 70.3125 87.5H85.9375C86.3519 87.5 86.7493 87.3354 87.0424 87.0424C87.3354 86.7493 87.5 86.3519 87.5 85.9375V70.3125C87.4999 70.0035 87.4083 69.7015 87.2366 69.4446C87.0649 69.1877 86.8209 68.9875 86.5354 68.8693C86.2499 68.751 85.9358 68.7201 85.6328 68.7803C85.3297 68.8406 85.0513 68.9894 84.8328 69.2078L69.2078 84.8328C68.9892 85.0513 68.8402 85.3298 68.7799 85.6329C68.7195 85.9361 68.7505 86.2504 68.8687 86.5359ZM84.375 74.0844V84.375H74.0844L84.375 74.0844Z" fill="#88530D"/>
<path d="M90.1672 3.58281C89.8742 3.28989 89.4768 3.12534 89.0625 3.12534C88.6482 3.12534 88.2508 3.28989 87.9578 3.58281L59.8328 31.7078C59.6621 31.8799 59.5332 32.0889 59.4563 32.3188L57.8938 37.0063C57.802 37.2814 57.7886 37.5766 57.8551 37.8589C57.9216 38.1412 58.0654 38.3995 58.2703 38.6047L58.7281 39.0625L55.1453 42.6453L57.3547 44.8547L60.9375 41.2719L61.3953 41.7297C61.6883 42.0227 62.0856 42.1874 62.5 42.1875C62.6678 42.1872 62.8344 42.1604 62.9938 42.1078L67.6813 40.5453C67.9115 40.4684 68.1207 40.339 68.2922 40.1672L96.4172 12.0422C96.7101 11.7492 96.8747 11.3518 96.8747 10.9375C96.8747 10.5232 96.7101 10.1258 96.4172 9.83281L90.1672 3.58281ZM62.9235 38.8375L61.1641 37.0781L62.011 34.5328L65.4688 37.9891L62.9235 38.8375ZM67.9688 36.0719L63.9281 32.0313L70.3125 25.6469L74.3531 29.6875L67.9688 36.0719ZM76.5625 27.4781L72.5219 23.4375L89.0625 6.89688L93.1031 10.9375L76.5625 27.4781Z" fill="#88530D"/>
<path d="M18.75 68.75V73.4375C18.75 73.8519 18.9146 74.2493 19.2076 74.5424C19.5007 74.8354 19.8981 75 20.3125 75H25V71.875H21.875V68.75H18.75Z" fill="#88530D"/>
<path d="M25 21.875H20.3125C19.8981 21.875 19.5007 22.0396 19.2076 22.3326C18.9146 22.6257 18.75 23.0231 18.75 23.4375V28.125H21.875V25H25V21.875Z" fill="#88530D"/>
</svg>
