<svg width="100" height="100" viewBox="0 0 100 100" fill="none" xmlns="http://www.w3.org/2000/svg">
<path d="M17.2266 48.3609L20.3516 48.5172C20.6565 41.9538 23.153 35.6821 27.4422 30.7047L25.0672 28.6734C20.3258 34.1746 17.5652 41.1063 17.2266 48.3609Z" fill="#88530D"/>
<path d="M61.3609 70.5078L62.8734 73.2422C67.13 70.8873 70.6583 67.4087 73.0732 63.1859C75.4881 58.963 76.6971 54.1581 76.5681 49.2952C76.4391 44.4323 74.9772 39.6982 72.3419 35.6093C69.7065 31.5204 65.9989 28.2338 61.6234 26.1078L60.2547 28.9203C63.6002 30.5506 66.5079 32.9564 68.7359 35.9375H61.4859L54.6875 30.4984V28.6406C55.3403 28.1882 55.9497 27.6761 56.5078 27.1109C56.664 26.9547 56.7922 26.8172 56.9109 26.6687C58.5732 24.8631 59.7332 22.6534 60.2752 20.2597C60.8172 17.866 60.7223 15.3721 60 13.0265C59.3352 10.834 58.1313 8.84309 56.4984 7.23592C56.2375 6.97499 55.9765 6.74686 55.7172 6.52186C55.6738 6.4834 55.6278 6.4479 55.5797 6.41561C54.1511 5.20066 52.4904 4.28871 50.6986 3.73514C48.9068 3.18156 47.0212 2.99789 45.1562 3.1953C43.7558 3.33731 42.3842 3.68588 41.0859 4.22967C40.8492 4.32866 40.6405 4.4844 40.4783 4.68316C40.316 4.88192 40.2052 5.11757 40.1557 5.3693C40.1061 5.62103 40.1193 5.8811 40.194 6.12653C40.2688 6.37196 40.4029 6.59521 40.5844 6.77655L48.7594 14.9687L44.3422 19.3859L36.1531 11.2078C35.9695 11.0271 35.7447 10.8938 35.4981 10.8192C35.2515 10.7446 34.9905 10.7311 34.7375 10.7797C34.4854 10.8303 34.2497 10.9423 34.0512 11.1059C33.8528 11.2694 33.6978 11.4794 33.6 11.7172C33.3679 12.2639 33.1763 12.8268 33.0265 13.4015C32.3576 15.7964 32.3356 18.3258 32.9628 20.7319C33.59 23.1381 34.8439 25.3349 36.5969 27.0984C37.1414 27.6613 37.7425 28.1665 38.3906 28.6062C38.5984 28.7625 38.8219 28.9187 39.0625 29.075V35.9375H35.9375C35.0329 35.9381 34.1478 36.2005 33.3889 36.6929C32.6301 37.1854 32.03 37.8869 31.661 38.7128C31.2919 39.5387 31.1698 40.4538 31.3092 41.3476C31.4487 42.2414 31.8438 43.0757 32.4469 43.75C31.6762 44.6085 31.25 45.7214 31.25 46.875C31.25 48.0286 31.6762 49.1415 32.4469 50C31.6762 50.8585 31.25 51.9714 31.25 53.125C31.25 54.2786 31.6762 55.3915 32.4469 56.25C31.8438 56.9242 31.4487 57.7586 31.3092 58.6524C31.1698 59.5462 31.2919 60.4613 31.661 61.2872C32.03 62.1131 32.6301 62.8146 33.3889 63.3071C34.1478 63.7995 35.0329 64.0619 35.9375 64.0625H39.0625V72.2062C38.8734 72.3766 38.689 72.5547 38.5047 72.7391C36.9059 74.3375 35.716 76.2979 35.0361 78.4541C34.3561 80.6102 34.2059 82.8985 34.5984 85.125C35.1944 88.3748 36.9092 91.3135 39.4453 93.4312C41.9814 95.5489 45.1788 96.712 48.4828 96.7187C50.3506 96.7207 52.2 96.3488 53.9219 95.625C54.1573 95.5252 54.3647 95.3692 54.5259 95.1706C54.687 94.972 54.7969 94.7369 54.8459 94.486C54.895 94.235 54.8817 93.9758 54.8072 93.7311C54.7327 93.4865 54.5993 93.2639 54.4187 93.0828L46.2406 84.8906L50.6562 80.4687L58.8484 88.6453C59.0283 88.8254 59.2495 88.9588 59.4927 89.0339C59.736 89.109 59.9939 89.1235 60.244 89.0762C60.4941 89.0289 60.7289 88.9213 60.9279 88.7626C61.1269 88.6039 61.2841 88.3989 61.3859 88.1656C61.6315 87.5981 61.8331 87.0125 61.989 86.4141C62.6453 84.0511 62.6697 81.5572 62.0599 79.1818C61.45 76.8065 60.2274 74.6328 58.514 72.8781C58.4768 72.8294 58.4366 72.7829 58.3937 72.7391C57.3168 71.6507 56.0638 70.7521 54.6875 70.0812V64.0625H68.75C66.7689 66.7079 64.2508 68.9044 61.3609 70.5078ZM56.4828 35.9375H54.6875V34.5015L56.4828 35.9375ZM38.8265 24.9109C37.5875 23.6656 36.6663 22.1403 36.1409 20.464C35.6155 18.7876 35.5012 17.0095 35.8078 15.2797L43.2422 22.7C43.5352 22.9929 43.9325 23.1575 44.3469 23.1575C44.7612 23.1575 45.1585 22.9929 45.4515 22.7L52.0765 16.075C52.3695 15.782 52.534 15.3846 52.534 14.9703C52.534 14.556 52.3695 14.1586 52.0765 13.8656L44.6453 6.41874C44.9234 6.37082 45.2036 6.33228 45.4859 6.30311C46.9393 6.13915 48.4108 6.27953 49.807 6.71532C51.2031 7.15111 52.4933 7.87277 53.5953 8.83436C53.6532 8.89116 53.7153 8.9434 53.7812 8.99061C53.95 9.13749 54.1203 9.28749 54.2922 9.45936C55.5594 10.7062 56.4932 12.2514 57.0078 13.9531C57.5726 15.7844 57.6451 17.7321 57.218 19.6003C56.791 21.4685 55.8794 23.1913 54.575 24.5953C54.5375 24.6375 54.5015 24.6797 54.4687 24.7234C54.4081 24.7948 54.3434 24.8626 54.275 24.9265C53.6852 25.5207 53.0239 26.0393 52.3062 26.4703C52.0795 26.6098 51.8922 26.8048 51.7621 27.037C51.6319 27.2691 51.5632 27.5307 51.5625 27.7969V35.9375H42.1875V28.1875C42.1876 27.9052 42.1113 27.6281 41.9666 27.3858C41.8218 27.1434 41.6142 26.9447 41.3656 26.8109C40.9636 26.5989 40.58 26.3538 40.2187 26.0781C39.7142 25.7388 39.2465 25.3476 38.8234 24.9109H38.8265ZM56.0937 74.8687C56.1324 74.9173 56.1736 74.9637 56.2172 75.0078C57.4469 76.2485 58.36 77.7669 58.8795 79.4348C59.3989 81.1027 59.5094 82.8711 59.2015 84.5906L51.7562 77.1594C51.4633 76.8669 51.0663 76.7027 50.6523 76.7027C50.2384 76.7027 49.8414 76.8669 49.5484 77.1594L42.9234 83.7844C42.631 84.0773 42.4667 84.4743 42.4667 84.8883C42.4667 85.3022 42.631 85.6992 42.9234 85.9922L50.3562 93.4375C48.8028 93.7065 47.2096 93.6361 45.6859 93.2312C43.6599 92.715 41.8264 91.6242 40.4059 90.0901C38.9855 88.556 38.0387 86.644 37.6797 84.5844C37.3732 82.8523 37.4891 81.072 38.0173 79.3942C38.5455 77.7165 39.4706 76.1909 40.714 74.9469C40.9453 74.7156 41.1828 74.4984 41.4859 74.2375C41.5359 74.1969 41.6859 74.0687 41.7297 74.025C42.0223 73.7324 42.187 73.3357 42.1875 72.9219V64.0625H51.5625V71.0937C51.5624 71.4056 51.6557 71.7103 51.8303 71.9688C52.0049 72.2272 52.2528 72.4274 52.5422 72.5437C53.8706 73.0716 55.0786 73.8624 56.0937 74.8687ZM60.9375 60.9375H35.9375C35.5231 60.9375 35.1257 60.7729 34.8326 60.4798C34.5396 60.1868 34.375 59.7894 34.375 59.375C34.375 58.9606 34.5396 58.5632 34.8326 58.2701C35.1257 57.9771 35.5231 57.8125 35.9375 57.8125H40.625V54.6875H35.9375C35.5231 54.6875 35.1257 54.5229 34.8326 54.2298C34.5396 53.9368 34.375 53.5394 34.375 53.125C34.375 52.7106 34.5396 52.3132 34.8326 52.0201C35.1257 51.7271 35.5231 51.5625 35.9375 51.5625H40.625V48.4375H35.9375C35.5231 48.4375 35.1257 48.2729 34.8326 47.9798C34.5396 47.6868 34.375 47.2894 34.375 46.875C34.375 46.4606 34.5396 46.0632 34.8326 45.7701C35.1257 45.4771 35.5231 45.3125 35.9375 45.3125H40.625V42.1875H35.9375C35.5231 42.1875 35.1257 42.0229 34.8326 41.7298C34.5396 41.4368 34.375 41.0394 34.375 40.625C34.375 40.2106 34.5396 39.8132 34.8326 39.5201C35.1257 39.2271 35.5231 39.0625 35.9375 39.0625H60.9375V60.9375ZM64.0625 60.9375V39.0625H70.7219C72.5052 42.4324 73.4374 46.1873 73.4374 50C73.4374 53.8127 72.5052 57.5676 70.7219 60.9375H64.0625Z" fill="#88530D"/>
<path d="M35.0578 71.9656L36.8156 69.375C33.6981 67.2528 31.1385 64.4099 29.3539 61.0875C27.5694 57.7651 26.6126 54.0613 26.5648 50.2902C26.5169 46.5192 27.3794 42.7923 29.0791 39.4257C30.7788 36.0591 33.2654 33.1522 36.3281 30.9516L34.5047 28.4141C31.0337 30.9082 28.2155 34.2028 26.2893 38.0183C24.363 41.8338 23.3856 46.0577 23.4399 50.3316C23.4942 54.6054 24.5786 58.8031 26.6011 62.5684C28.6236 66.3338 31.5246 69.5558 35.0578 71.9609V71.9656Z" fill="#88530D"/>
<path d="M4.6875 56.25H11.4438C11.8633 58.8518 12.5439 61.4048 13.475 63.8703L7.64062 67.2422C7.28218 67.4494 7.02063 67.7904 6.91341 68.1903C6.80618 68.5902 6.86205 69.0163 7.06875 69.375L11.7563 77.5C11.859 77.6778 11.9957 77.8335 12.1587 77.9584C12.3217 78.0833 12.5077 78.1748 12.706 78.2278C12.9044 78.2808 13.1113 78.2941 13.3148 78.2671C13.5183 78.2401 13.7145 78.1732 13.8922 78.0703L19.7344 74.6875C21.4011 76.7295 23.27 78.5979 25.3125 80.2641L21.9297 86.1078C21.8265 86.2855 21.7595 86.4819 21.7323 86.6856C21.7052 86.8893 21.7185 87.0963 21.7714 87.2949C21.8244 87.4934 21.916 87.6796 22.041 87.8427C22.1661 88.0057 22.322 88.1426 22.5 88.2453L30.625 92.9328C30.9839 93.1394 31.4102 93.195 31.8101 93.0875C32.21 92.9799 32.5509 92.7181 32.7578 92.3594L34.2109 89.8437L31.5063 88.2812L30.8328 89.4453L25.4156 86.3203L28.6969 80.6578C28.8887 80.3278 28.9532 79.9391 28.878 79.5649C28.8029 79.1907 28.5934 78.8569 28.2891 78.6265C25.6793 76.6494 23.3516 74.3254 21.3703 71.7187C21.14 71.4144 20.8062 71.2049 20.432 71.1298C20.0578 71.0546 19.669 71.1191 19.3391 71.3109L13.6781 74.5922L10.5531 69.1765L16.2031 65.9094C16.5318 65.719 16.7799 65.4154 16.901 65.0553C17.0221 64.6953 17.0078 64.3034 16.8609 63.9531C15.5987 60.9309 14.7524 57.7514 14.3453 54.5016C14.2999 54.1226 14.1173 53.7733 13.8321 53.5197C13.5468 53.2661 13.1786 53.1257 12.7969 53.125H6.25V46.875H12.7969C13.1772 46.875 13.5444 46.7363 13.8298 46.4849C14.1151 46.2335 14.299 45.8866 14.3469 45.5094C14.6686 42.9543 15.2594 40.4403 16.1094 38.0094C16.3406 37.3469 16.5917 36.6948 16.8625 36.0531C17.0098 35.7026 17.0243 35.3104 16.9032 34.95C16.7821 34.5896 16.5338 34.2857 16.2047 34.0953L10.5547 30.8344L13.6797 25.4187L19.3406 28.7C19.6706 28.8918 20.0594 28.9563 20.4336 28.8811C20.8078 28.806 21.1415 28.5965 21.3719 28.2922C23.3493 25.6812 25.6739 23.3524 28.2813 21.3703C28.5856 21.14 28.7951 20.8062 28.8702 20.432C28.9453 20.0578 28.8809 19.669 28.6891 19.3391L25.4078 13.6766L30.525 10.725L28.9625 8.01874L22.5 11.7547C22.322 11.8574 22.1661 11.9942 22.041 12.1573C21.916 12.3204 21.8244 12.5066 21.7714 12.7051C21.7185 12.9037 21.7052 13.1107 21.7323 13.3144C21.7595 13.5181 21.8265 13.7144 21.9297 13.8922L25.3125 19.7359C23.27 21.4021 21.4011 23.2705 19.7344 25.3125L13.8922 21.9297C13.7151 21.8254 13.5189 21.7578 13.3151 21.731C13.1114 21.7041 12.9043 21.7186 12.7063 21.7734C12.5079 21.8262 12.322 21.9176 12.159 22.0422C11.996 22.1669 11.8591 22.3224 11.7563 22.5L7.06875 30.625C6.86205 30.9837 6.80618 31.4098 6.91341 31.8097C7.02063 32.2096 7.28218 32.5506 7.64062 32.7578L13.4703 36.1297C13.3661 36.412 13.262 36.6963 13.1578 36.9828C12.3872 39.1833 11.8136 41.4479 11.4438 43.75H4.6875C4.2731 43.75 3.87567 43.9146 3.58265 44.2076C3.28962 44.5007 3.125 44.8981 3.125 45.3125V54.6875C3.125 55.1019 3.28962 55.4993 3.58265 55.7923C3.87567 56.0854 4.2731 56.25 4.6875 56.25Z" fill="#88530D"/>
<path d="M31.5094 25.6515L29.5594 23.2094C28.6794 23.912 27.8356 24.6588 27.0312 25.4468L29.2188 27.6781C29.9473 26.9641 30.7119 26.2877 31.5094 25.6515Z" fill="#88530D"/>
<path d="M95.3125 43.75H88.5562C88.1367 41.1482 87.4561 38.5952 86.525 36.1297L92.3563 32.7578C92.7147 32.5506 92.9762 32.2096 93.0835 31.8097C93.1907 31.4098 93.1348 30.9837 92.9281 30.625L88.2406 22.5C88.1377 22.3224 88.0009 22.1669 87.8379 22.0422C87.6749 21.9176 87.4889 21.8262 87.2906 21.7734C87.0926 21.7185 86.8855 21.704 86.6817 21.7308C86.478 21.7577 86.2817 21.8253 86.1047 21.9297L80.2656 25.3125C78.5989 23.2705 76.73 21.4021 74.6875 19.7359L78.0703 13.8922C78.1735 13.7144 78.2405 13.5181 78.2677 13.3144C78.2948 13.1107 78.2816 12.9037 78.2286 12.7051C78.1756 12.5066 78.084 12.3204 77.959 12.1573C77.8339 11.9942 77.678 11.8574 77.5 11.7547L69.375 7.06718C69.0161 6.86062 68.5898 6.80498 68.1899 6.91251C67.79 7.02003 67.4491 7.28191 67.2422 7.64062L63.1953 14.6406L65.9016 16.2031L69.1672 10.5547L74.5844 13.6797L71.3031 19.3422C71.1113 19.6721 71.0468 20.0609 71.122 20.4351C71.1971 20.8093 71.4066 21.1431 71.7109 21.3734C74.3207 23.3506 76.6484 25.6746 78.6297 28.2812C78.86 28.5856 79.1938 28.7951 79.568 28.8702C79.9422 28.9453 80.331 28.8809 80.6609 28.6891L86.3219 25.4078L89.4469 30.8234L83.7969 34.0906C83.4682 34.281 83.2201 34.5846 83.099 34.9447C82.9779 35.3047 82.9922 35.6966 83.1391 36.0469C84.4013 39.0691 85.2476 42.2486 85.6547 45.4984C85.7001 45.8774 85.8827 46.2267 86.1679 46.4803C86.4532 46.7339 86.8214 46.8743 87.2031 46.875H93.75V53.125H87.2031C86.8228 53.125 86.4556 53.2637 86.1702 53.5151C85.8849 53.7665 85.701 54.1134 85.6531 54.4906C85.246 57.7404 84.3997 60.92 83.1375 63.9422C82.9906 64.2925 82.9764 64.6843 83.0975 65.0444C83.2185 65.4044 83.4666 65.708 83.7953 65.8984L89.4453 69.1656L86.3203 74.5812L80.6594 71.3C80.3294 71.1082 79.9407 71.0437 79.5664 71.1188C79.1922 71.194 78.8585 71.4035 78.6281 71.7078C76.6507 74.3188 74.3261 76.6476 71.7188 78.6297C71.4144 78.86 71.2049 79.1938 71.1298 79.568C71.0547 79.9422 71.1191 80.331 71.3109 80.6609L74.5922 86.3234L69.175 89.4484L67.5891 86.7188L64.8828 88.2812L67.2406 92.3594C67.4476 92.7181 67.7884 92.98 68.1884 93.0875C68.5883 93.195 69.0145 93.1394 69.3734 92.9328L77.4984 88.2453C77.6764 88.1426 77.8324 88.0057 77.9574 87.8427C78.0824 87.6796 78.174 87.4934 78.227 87.2949C78.28 87.0963 78.2933 86.8893 78.2661 86.6856C78.239 86.4819 78.1719 86.2855 78.0688 86.1078L74.6875 80.2641C76.73 78.5979 78.5989 76.7295 80.2656 74.6875L86.1078 78.0703C86.2855 78.1732 86.4817 78.2401 86.6852 78.2671C86.8888 78.2941 87.0956 78.2808 87.294 78.2278C87.4923 78.1749 87.6783 78.0833 87.8413 77.9584C88.0043 77.8335 88.141 77.6778 88.2438 77.5L92.9313 69.375C93.1379 69.0163 93.1938 68.5902 93.0866 68.1903C92.9794 67.7904 92.7178 67.4494 92.3594 67.2422L86.5281 63.8703C87.4582 61.4047 88.1377 58.8517 88.5562 56.25H95.3125C95.7269 56.25 96.1243 56.0854 96.4174 55.7924C96.7104 55.4993 96.875 55.1019 96.875 54.6875V45.3125C96.875 44.8981 96.7104 44.5007 96.4174 44.2076C96.1243 43.9146 95.7269 43.75 95.3125 43.75Z" fill="#88530D"/>
</svg>
