<svg width="14" height="15" viewBox="0 0 14 15" fill="none" xmlns="http://www.w3.org/2000/svg">
<path d="M10.3667 2.35C9.79702 1.69969 9.4831 0.864527 9.48333 0H6.90833V10.3333C6.88847 10.8925 6.65239 11.4222 6.2498 11.8108C5.84722 12.1994 5.30954 12.4166 4.75 12.4167C3.56667 12.4167 2.58333 11.45 2.58333 10.25C2.58333 8.81667 3.96667 7.74167 5.39167 8.18333V5.55C2.51667 5.16667 0 7.4 0 10.25C0 13.025 2.3 15 4.74167 15C7.35833 15 9.48333 12.875 9.48333 10.25V5.00833C10.5275 5.75821 11.7811 6.16054 13.0667 6.15833V3.58333C13.0667 3.58333 11.5 3.65833 10.3667 2.35Z" fill="#FDFEFE"/>
</svg>
