<svg width="100" height="100" viewBox="0 0 100 100" fill="none" xmlns="http://www.w3.org/2000/svg">
<path d="M93.75 85.9375V42.1875H90.625V46.875H87.5V42.1875H84.375V46.875H78.125V42.1875H75V46.875H71.875V42.1875H68.75V46.875H62.5V42.1875H59.375V46.875H56.25V42.1875H53.125V46.875H46.875V42.1875H43.75V46.875H40.625V42.1875H37.5V93.75H31.25V20.3125H75V22.3797L60.3578 28.2359C60.0676 28.3519 59.8189 28.5522 59.6437 28.8109C59.4685 29.0697 59.3749 29.375 59.375 29.6875V35.9375C59.375 36.3519 59.5396 36.7493 59.8326 37.0424C60.1257 37.3354 60.5231 37.5 60.9375 37.5H92.1875C92.6019 37.5 92.9993 37.3354 93.2924 37.0424C93.5854 36.7493 93.75 36.3519 93.75 35.9375V29.6875C93.7487 29.3759 93.6543 29.0718 93.4789 28.8142C93.3035 28.5567 93.0551 28.3575 92.7656 28.2422L78.125 22.3797V20.3125H95.3125C95.6215 20.3124 95.9235 20.2208 96.1804 20.0491C96.4373 19.8774 96.6375 19.6334 96.7558 19.3479C96.874 19.0624 96.9049 18.7483 96.8447 18.4453C96.7844 18.1422 96.6356 17.8638 96.4172 17.6453L87.0422 8.27031C86.7492 7.97727 86.3519 7.81259 85.9375 7.8125H26.5625V3.125H23.4375V7.8125H12.5C12.2707 7.81236 12.0442 7.86268 11.8366 7.95989C11.6289 8.0571 11.4452 8.19882 11.2984 8.375L3.48594 17.75C3.38924 17.8664 3.31027 17.9965 3.25156 18.1359C3.25156 18.1469 3.25156 18.1594 3.24219 18.1719C3.17924 18.3335 3.14436 18.5047 3.13906 18.6781C3.13906 18.7031 3.125 18.725 3.125 18.75V25C3.125 25.2052 3.16542 25.4084 3.24394 25.5979C3.32246 25.7875 3.43755 25.9598 3.58265 26.1049C3.72774 26.2499 3.89999 26.365 4.08956 26.4436C4.27913 26.5221 4.48231 26.5625 4.6875 26.5625H14.0625C14.4769 26.5625 14.8743 26.3979 15.1674 26.1049C15.4604 25.8118 15.625 25.4144 15.625 25V20.3125H18.75V93.75H3.125V96.875H96.875V93.75H93.75V85.9375ZM90.625 34.375H62.5V31.25H90.625V34.375ZM84.0734 28.125H69.0516L76.5625 25.1203L84.0734 28.125ZM91.5406 17.1875H80.3344L85.9375 11.5844L91.5406 17.1875ZM82.1656 10.9375L76.5625 16.5406L70.9594 10.9375H82.1656ZM72.7906 17.1875H61.5844L67.1875 11.5844L72.7906 17.1875ZM63.4156 10.9375L57.8125 16.5406L52.2094 10.9375H63.4156ZM54.0406 17.1875H42.8344L48.4375 11.5844L54.0406 17.1875ZM44.6656 10.9375L39.0625 16.5406L33.4594 10.9375H44.6656ZM31.25 13.1469L35.2906 17.1875H31.25V13.1469ZM12.5 23.4375H6.25V20.3125H12.5V23.4375ZM14.0625 17.1875H8.02344L12.5 11.8156L16.9766 17.1875H14.0625ZM18.75 14.4344L15.8359 10.9375H18.75V14.4344ZM21.875 20.3125H26.5625L21.875 26.5625V20.3125ZM21.875 35.9375L26.5625 42.1875H21.875V35.9375ZM21.875 45.3125H26.5625L21.875 51.5625V45.3125ZM21.875 60.9375L26.5625 67.1875H21.875V60.9375ZM21.875 70.3125H26.5625L21.875 76.5625V70.3125ZM21.875 93.75V85.9375L27.7344 93.75H21.875ZM28.125 89.0625L23.4375 82.8125H28.125V89.0625ZM28.125 79.6875H23.4375L28.125 73.4375V79.6875ZM28.125 64.0625L23.4375 57.8125H28.125V64.0625ZM28.125 54.6875H23.4375L28.125 48.4375V54.6875ZM28.125 39.0625L23.4375 32.8125H28.125V39.0625ZM28.125 29.6875H23.4375L28.125 23.4375V29.6875ZM28.125 17.1875H21.875V10.9375H28.125V17.1875ZM43.75 93.75H40.625V50H43.75V93.75ZM53.125 93.75H46.875V87.5H53.125V93.75ZM53.125 84.375H46.875V81.25H53.125V84.375ZM53.125 78.125H46.875V71.875H53.125V78.125ZM53.125 68.75H46.875V65.625H53.125V68.75ZM53.125 62.5H46.875V56.25H53.125V62.5ZM53.125 53.125H46.875V50H53.125V53.125ZM59.375 93.75H56.25V50H59.375V93.75ZM68.75 93.75H62.5V87.5H68.75V93.75ZM68.75 84.375H62.5V81.25H68.75V84.375ZM68.75 78.125H62.5V71.875H68.75V78.125ZM68.75 68.75H62.5V65.625H68.75V68.75ZM68.75 62.5H62.5V56.25H68.75V62.5ZM68.75 53.125H62.5V50H68.75V53.125ZM75 93.75H71.875V50H75V93.75ZM84.375 93.75H78.125V87.5H84.375V93.75ZM84.375 84.375H78.125V81.25H84.375V84.375ZM84.375 78.125H78.125V71.875H84.375V78.125ZM84.375 68.75H78.125V65.625H84.375V68.75ZM84.375 62.5H78.125V56.25H84.375V62.5ZM84.375 53.125H78.125V50H84.375V53.125ZM90.625 54.6875V93.75H87.5V50H90.625V54.6875Z" fill="#88530D"/>
</svg>
