<svg width="100" height="100" viewBox="0 0 100 100" fill="none" xmlns="http://www.w3.org/2000/svg">
<path d="M90.625 39.0625V37.5C90.6352 30.7126 88.3121 24.128 84.0451 18.8496C79.778 13.5713 73.8263 9.92004 67.1875 8.50781V4.6875C67.1875 4.2731 67.0229 3.87567 66.7299 3.58265C66.4368 3.28962 66.0394 3.125 65.625 3.125H56.25C55.8356 3.125 55.4382 3.28962 55.1451 3.58265C54.8521 3.87567 54.6875 4.2731 54.6875 4.6875V8.49375C50.6306 9.35429 46.8006 11.0603 43.4474 13.5006C40.0942 15.9409 37.293 19.0606 35.2266 22.6562L37.9312 24.2188C40.1107 20.4584 43.1824 17.2923 46.875 15V21.875H50V13.325C51.5087 12.6465 53.0782 12.1124 54.6875 11.7297V26.5625C54.6875 26.9769 54.8521 27.3743 55.1451 27.6674C55.4382 27.9604 55.8356 28.125 56.25 28.125H65.625C66.0394 28.125 66.4368 27.9604 66.7299 27.6674C67.0229 27.3743 67.1875 26.9769 67.1875 26.5625V11.6953C68.7975 12.0811 70.3671 12.6195 71.875 13.3031V21.875H75V14.9625C76.7094 16.0318 78.2932 17.2897 79.7219 18.7125C82.1938 21.176 84.1538 24.1044 85.4887 27.3288C86.8237 30.5533 87.5072 34.0101 87.5 37.5V39.0625H82.8125V32.8125C82.8125 32.3981 82.6479 32.0007 82.3549 31.7076C82.0618 31.4146 81.6644 31.25 81.25 31.25H71.875C71.4606 31.25 71.0632 31.4146 70.7701 31.7076C70.4771 32.0007 70.3125 32.3981 70.3125 32.8125V37.5H73.4375V34.375H79.6875V39.0625H75V42.1875H90.625C91.4538 42.1875 92.2487 42.5167 92.8347 43.1028C93.4208 43.6888 93.75 44.4837 93.75 45.3125C93.75 46.1413 93.4208 46.9362 92.8347 47.5222C92.2487 48.1083 91.4538 48.4375 90.625 48.4375H68.75V51.5625H90.625C92.2826 51.5625 93.8723 50.904 95.0444 49.7319C96.2165 48.5598 96.875 46.9701 96.875 45.3125C96.875 43.6549 96.2165 42.0652 95.0444 40.8931C93.8723 39.721 92.2826 39.0625 90.625 39.0625ZM64.0625 25H57.8125V6.25H64.0625V25Z" fill="#88530D"/>
<path d="M4.6875 70.3125H12.0688C12.6458 72.3119 13.4456 74.2401 14.4531 76.0609L9.23125 81.2828C8.93833 81.5758 8.77377 81.9732 8.77377 82.3875C8.77377 82.8018 8.93833 83.1992 9.23125 83.4922L18.0703 92.3312C18.3633 92.6242 18.7607 92.7887 19.175 92.7887C19.5893 92.7887 19.9867 92.6242 20.2797 92.3312L25.5016 87.1094C27.3224 88.1169 29.2506 88.9167 31.25 89.4938V96.875C31.25 97.2894 31.4146 97.6868 31.7076 97.9799C32.0007 98.2729 32.3981 98.4375 32.8125 98.4375H45.3125C45.7269 98.4375 46.1243 98.2729 46.4174 97.9799C46.7104 97.6868 46.875 97.2894 46.875 96.875V89.4938C48.8744 88.9167 50.8026 88.1169 52.6234 87.1094L57.8453 92.3312C58.1383 92.6242 58.5357 92.7887 58.95 92.7887C59.3643 92.7887 59.7617 92.6242 60.0547 92.3312L68.8937 83.4922C69.1867 83.1992 69.3512 82.8018 69.3512 82.3875C69.3512 81.9732 69.1867 81.5758 68.8937 81.2828L63.6719 76.0609C64.6794 74.2401 65.4792 72.3119 66.0563 70.3125H73.4375C73.8519 70.3125 74.2493 70.1479 74.5424 69.8549C74.8354 69.5618 75 69.1644 75 68.75V56.25C75 55.8356 74.8354 55.4382 74.5424 55.1451C74.2493 54.8521 73.8519 54.6875 73.4375 54.6875H66.0563C65.4789 52.6882 64.6791 50.76 63.6719 48.9391L68.8937 43.7172C69.1867 43.4242 69.3512 43.0268 69.3512 42.6125C69.3512 42.1982 69.1867 41.8008 68.8937 41.5078L60.0547 32.6688C59.7617 32.3758 59.3643 32.2113 58.95 32.2113C58.5357 32.2113 58.1383 32.3758 57.8453 32.6688L52.6234 37.8906C50.8026 36.8831 48.8744 36.0833 46.875 35.5063V28.125C46.875 27.7106 46.7104 27.3132 46.4174 27.0201C46.1243 26.7271 45.7269 26.5625 45.3125 26.5625H32.8125C32.3981 26.5625 32.0007 26.7271 31.7076 27.0201C31.4146 27.3132 31.25 27.7106 31.25 28.125V35.5063C29.2506 36.0833 27.3224 36.8831 25.5016 37.8906L20.2797 32.6688C19.9867 32.3758 19.5893 32.2113 19.175 32.2113C18.7607 32.2113 18.3633 32.3758 18.0703 32.6688L9.23125 41.5078C8.93833 41.8008 8.77377 42.1982 8.77377 42.6125C8.77377 43.0268 8.93833 43.4242 9.23125 43.7172L14.4531 48.9391C13.4459 50.76 12.6461 52.6882 12.0688 54.6875H4.6875C4.2731 54.6875 3.87567 54.8521 3.58265 55.1451C3.28962 55.4382 3.125 55.8356 3.125 56.25V68.75C3.125 69.1644 3.28962 69.5618 3.58265 69.8549C3.87567 70.1479 4.2731 70.3125 4.6875 70.3125ZM6.25 57.8125H13.2703C13.6209 57.8125 13.9612 57.6946 14.2367 57.4778C14.5121 57.261 14.7067 56.9579 14.7891 56.6172C15.3967 54.1052 16.3925 51.7034 17.7406 49.4984C17.9233 49.1994 18.0001 48.8476 17.9587 48.4996C17.9173 48.1516 17.7602 47.8276 17.5125 47.5797L12.5453 42.6125L19.175 35.9828L24.1422 40.95C24.3902 41.1981 24.7145 41.3554 25.0628 41.3968C25.4111 41.4382 25.7633 41.3612 26.0625 41.1781C28.2663 39.8288 30.6678 38.8329 33.1797 38.2266C33.5204 38.1442 33.8235 37.9496 34.0403 37.6742C34.2571 37.3987 34.375 37.0584 34.375 36.7078V29.6875H43.75V36.7078C43.75 37.0584 43.8679 37.3987 44.0847 37.6742C44.3015 37.9496 44.6046 38.1442 44.9453 38.2266C47.4572 38.8329 49.8587 39.8288 52.0625 41.1781C52.3617 41.3612 52.7139 41.4382 53.0622 41.3968C53.4105 41.3554 53.7348 41.1981 53.9828 40.95L58.95 35.9828L65.5797 42.6125L60.6125 47.5797C60.3648 47.8276 60.2077 48.1516 60.1663 48.4996C60.1249 48.8476 60.2017 49.1994 60.3844 49.4984C61.7325 51.7034 62.7283 54.1052 63.3359 56.6172C63.4183 56.9579 63.6129 57.261 63.8883 57.4778C64.1638 57.6946 64.5041 57.8125 64.8547 57.8125H71.875V67.1875H64.8547C64.5041 67.1875 64.1638 67.3054 63.8883 67.5222C63.6129 67.739 63.4183 68.0421 63.3359 68.3828C62.7296 70.8947 61.7337 73.2962 60.3844 75.5C60.2013 75.7992 60.1243 76.1514 60.1657 76.4997C60.2071 76.848 60.3644 77.1723 60.6125 77.4203L65.5797 82.3875L58.95 89.0172L53.9828 84.05C53.7348 83.8019 53.4105 83.6446 53.0622 83.6032C52.7139 83.5618 52.3617 83.6388 52.0625 83.8219C49.8587 85.1712 47.4572 86.1671 44.9453 86.7734C44.6046 86.8558 44.3015 87.0504 44.0847 87.3258C43.8679 87.6013 43.75 87.9416 43.75 88.2922V95.3125H34.375V88.2922C34.375 87.9416 34.2571 87.6013 34.0403 87.3258C33.8235 87.0504 33.5204 86.8558 33.1797 86.7734C30.6678 86.1671 28.2663 85.1712 26.0625 83.8219C25.7633 83.6388 25.4111 83.5618 25.0628 83.6032C24.7145 83.6446 24.3902 83.8019 24.1422 84.05L19.175 89.0172L12.5453 82.3875L17.5125 77.4203C17.7606 77.1723 17.9179 76.848 17.9593 76.4997C18.0007 76.1514 17.9237 75.7992 17.7406 75.5C16.3913 73.2962 15.3954 70.8947 14.7891 68.3828C14.7067 68.0421 14.5121 67.739 14.2367 67.5222C13.9612 67.3054 13.6209 67.1875 13.2703 67.1875H6.25V57.8125Z" fill="#88530D"/>
<path d="M39.0625 81.25C42.7709 81.25 46.396 80.1503 49.4794 78.0901C52.5629 76.0298 54.9661 73.1014 56.3852 69.6753C57.8044 66.2492 58.1757 62.4792 57.4522 58.8421C56.7288 55.2049 54.943 51.864 52.3208 49.2418C49.6985 46.6195 46.3576 44.8338 42.7204 44.1103C39.0833 43.3868 35.3133 43.7581 31.8872 45.1773C28.4611 46.5964 25.5327 48.9996 23.4724 52.0831C21.4122 55.1665 20.3125 58.7916 20.3125 62.5C20.3179 67.4712 22.295 72.2372 25.8102 75.7523C29.3253 79.2675 34.0913 81.2446 39.0625 81.25ZM39.0625 46.875C42.1528 46.875 45.1738 47.7914 47.7433 49.5083C50.3128 51.2252 52.3155 53.6655 53.4981 56.5206C54.6807 59.3757 54.9902 62.5173 54.3873 65.5483C53.7844 68.5792 52.2962 71.3634 50.111 73.5485C47.9258 75.7337 45.1417 77.2219 42.1108 77.8248C39.0798 78.4277 35.9382 78.1182 33.0831 76.9356C30.228 75.753 27.7877 73.7503 26.0708 71.1808C24.3539 68.6113 23.4375 65.5903 23.4375 62.5C23.442 58.3574 25.0897 54.3858 28.019 51.4565C30.9483 48.5272 34.9199 46.8796 39.0625 46.875Z" fill="#88530D"/>
<path d="M39.0625 71.875C40.9167 71.875 42.7293 71.3252 44.271 70.295C45.8127 69.2649 47.0143 67.8007 47.7239 66.0877C48.4334 64.3746 48.6191 62.4896 48.2574 60.671C47.8956 58.8525 47.0027 57.182 45.6916 55.8709C44.3805 54.5598 42.71 53.6669 40.8915 53.3051C39.0729 52.9434 37.1879 53.1291 35.4748 53.8386C33.7618 54.5482 32.2976 55.7498 31.2675 57.2915C30.2373 58.8332 29.6875 60.6458 29.6875 62.5C29.69 64.9856 30.6785 67.3688 32.4361 69.1264C34.1937 70.884 36.5769 71.8725 39.0625 71.875ZM39.0625 56.25C40.2986 56.25 41.507 56.6166 42.5348 57.3033C43.5626 57.9901 44.3637 58.9662 44.8367 60.1082C45.3098 61.2503 45.4336 62.5069 45.1924 63.7193C44.9513 64.9317 44.356 66.0453 43.4819 66.9194C42.6078 67.7935 41.4942 68.3888 40.2818 68.6299C39.0694 68.8711 37.8128 68.7473 36.6707 68.2743C35.5287 67.8012 34.5526 67.0001 33.8658 65.9723C33.1791 64.9445 32.8125 63.7361 32.8125 62.5C32.8125 60.8424 33.471 59.2527 34.6431 58.0806C35.8152 56.9085 37.4049 56.25 39.0625 56.25Z" fill="#88530D"/>
</svg>
