<svg width="100" height="100" viewBox="0 0 100 100" fill="none" xmlns="http://www.w3.org/2000/svg">
<path d="M87.5 45.3125H90.625V14.0625C90.625 13.6481 90.4604 13.2507 90.1674 12.9576C89.8743 12.6646 89.4769 12.5 89.0625 12.5H73.4375V15.625H87.5V45.3125Z" fill="#88530D"/>
<path d="M3.34375 85.9281C3.41157 86.2232 3.50194 86.5126 3.61406 86.7937C3.6625 86.9125 3.7375 87.0172 3.79375 87.1312C3.9091 87.382 4.04117 87.6247 4.18906 87.8578C4.40256 88.1709 4.64363 88.4642 4.90937 88.7344C4.92812 88.7531 4.93906 88.775 4.95781 88.7922C4.97656 88.8094 4.99688 88.8219 5.01562 88.8406C5.28576 89.1064 5.57912 89.3474 5.89219 89.5609C6.12525 89.7088 6.36798 89.8409 6.61875 89.9562C6.73281 90.0125 6.8375 90.0875 6.95625 90.1359C7.23745 90.2481 7.52684 90.3384 7.82188 90.4062C7.92656 90.4328 8.02187 90.4781 8.13437 90.4984C8.54265 90.5819 8.95827 90.6244 9.375 90.625H45.3125V87.5H9.375C9.1651 87.5001 8.95572 87.4791 8.75 87.4375C8.67812 87.4234 8.61094 87.3937 8.54063 87.3734C8.41305 87.3432 8.28774 87.304 8.16562 87.2563C8.05823 87.2079 7.95387 87.1532 7.85313 87.0922C7.77969 87.05 7.69687 87.0172 7.63125 86.9719C7.29172 86.7428 6.99943 86.4505 6.77031 86.1109C6.725 86.0406 6.69219 85.9625 6.65 85.8891C6.58903 85.7883 6.53424 85.684 6.48594 85.5766C6.43818 85.4544 6.39902 85.3291 6.36875 85.2016C6.34844 85.1312 6.31875 85.0641 6.30469 84.9922C6.21318 84.538 6.22381 84.0692 6.3358 83.6196C6.44779 83.17 6.65835 82.751 6.95221 82.3928C7.24608 82.0347 7.61592 81.7463 8.03494 81.5487C8.45397 81.351 8.9117 81.249 9.375 81.25H14.0625C14.4769 81.25 14.8743 81.0854 15.1674 80.7924C15.4604 80.4993 15.625 80.1019 15.625 79.6875V15.625H54.6875V12.5H15.625V4.6875C15.625 4.2731 15.4604 3.87567 15.1674 3.58265C14.8743 3.28962 14.4769 3.125 14.0625 3.125H9.375C7.7174 3.125 6.12769 3.78348 4.95558 4.95558C3.78348 6.12769 3.125 7.7174 3.125 9.375V84.375C3.12502 84.7949 3.16742 85.2137 3.25156 85.625C3.27188 85.7281 3.31719 85.8234 3.34375 85.9281ZM6.25 18.75V9.375C6.25 8.5462 6.57924 7.75134 7.16529 7.16529C7.75134 6.57924 8.5462 6.25 9.375 6.25H12.5V78.125H9.375C8.27745 78.1233 7.19909 78.4128 6.25 78.9641V18.75Z" fill="#88530D"/>
<path d="M56.25 75C56.6644 75 57.0618 74.8354 57.3549 74.5424C57.6479 74.2493 57.8125 73.8519 57.8125 73.4375C57.8192 72.0019 57.5395 70.5794 56.9898 69.2533C56.44 67.9271 55.6313 66.7239 54.6109 65.7141C53.3346 64.4159 51.7473 63.4659 50 62.9547V57.8125H51.5625C51.9769 57.8125 52.3743 57.6479 52.6674 57.3549C52.9604 57.0618 53.125 56.6644 53.125 56.25V50C53.125 49.5856 52.9604 49.1882 52.6674 48.8951C52.3743 48.6021 51.9769 48.4375 51.5625 48.4375H50V42.1875H40.7813C41.1436 40.4239 42.1031 38.8393 43.4978 37.7008C44.8925 36.5622 46.6371 35.9395 48.4375 35.9375H50V31.25H54.6875V28.125H50V23.4375C50 23.0231 49.8354 22.6257 49.5424 22.3326C49.2493 22.0396 48.8519 21.875 48.4375 21.875H21.875C21.4606 21.875 21.0632 22.0396 20.7701 22.3326C20.4771 22.6257 20.3125 23.0231 20.3125 23.4375V79.6875C20.3125 80.1019 20.4771 80.4993 20.7701 80.7924C21.0632 81.0854 21.4606 81.25 21.875 81.25H29.6875V73.5937C31.4511 73.9561 33.0357 74.9156 34.1742 76.3103C35.3128 77.705 35.9355 79.4496 35.9375 81.25H54.6875V78.125H50V75H56.25ZM50 51.5625V54.6875H46.875V51.5625H50ZM23.4375 25H26.5625V28.125H23.4375V25ZM23.4375 31.25H28.125C28.5394 31.25 28.9368 31.0854 29.2299 30.7924C29.5229 30.4993 29.6875 30.1019 29.6875 29.6875V25H46.875V32.9375C44.2741 33.3129 41.8952 34.6122 40.1737 36.5977C38.4522 38.5832 37.5031 41.1221 37.5 43.75C37.5 44.1644 37.6646 44.5618 37.9576 44.8549C38.2507 45.1479 38.6481 45.3125 39.0625 45.3125H46.875V48.4375H45.3125C44.8981 48.4375 44.5007 48.6021 44.2076 48.8951C43.9146 49.1882 43.75 49.5856 43.75 50V51.5625H29.6875V50C29.6875 49.5856 29.5229 49.1882 29.2299 48.8951C28.9368 48.6021 28.5394 48.4375 28.125 48.4375H23.4375V31.25ZM23.4375 51.5625H26.5625V54.6875H23.4375V51.5625ZM26.5625 78.125H23.4375V75H26.5625V78.125ZM48.4375 71.875C48.0231 71.875 47.6257 72.0396 47.3326 72.3326C47.0396 72.6257 46.875 73.0231 46.875 73.4375V78.125H38.5938C37.9194 75.8711 36.5372 73.8942 34.6517 72.4871C32.7662 71.08 30.4777 70.3175 28.125 70.3125C27.7106 70.3125 27.3132 70.4771 27.0201 70.7701C26.7271 71.0632 26.5625 71.4606 26.5625 71.875H23.4375V57.8125H28.125C28.5394 57.8125 28.9368 57.6479 29.2299 57.3549C29.5229 57.0618 29.6875 56.6644 29.6875 56.25V54.6875H43.75V56.25C43.75 56.6644 43.9146 57.0618 44.2076 57.3549C44.5007 57.6479 44.8981 57.8125 45.3125 57.8125H46.875V64.2031C46.8749 64.5751 47.0074 64.935 47.2489 65.2179C47.4903 65.5009 47.8248 65.6885 48.1922 65.7469C49.7919 66.0013 51.2673 66.7639 52.4 67.9219C53.4896 68.9969 54.232 70.3739 54.5313 71.875H48.4375Z" fill="#88530D"/>
<path d="M75 37.5H79.6875V53.125H82.8125V29.6875C82.8125 29.2731 82.6479 28.8757 82.3549 28.5826C82.0618 28.2896 81.6644 28.125 81.25 28.125H75C74.5856 28.125 74.1882 28.2896 73.8951 28.5826C73.6021 28.8757 73.4375 29.2731 73.4375 29.6875V35.9375C73.4375 36.3519 73.6021 36.7493 73.8951 37.0424C74.1882 37.3354 74.5856 37.5 75 37.5ZM76.5625 31.25H79.6875V34.375H76.5625V31.25Z" fill="#88530D"/>
<path d="M95.911 45.4312C95.6254 45.313 95.3111 45.282 95.008 45.3424C94.7048 45.4027 94.4263 45.5517 94.2078 45.7703L45.7703 94.2078C45.5519 94.4263 45.4031 94.7047 45.3429 95.0078C45.2826 95.3108 45.3136 95.6249 45.4318 95.9104C45.55 96.1959 45.7502 96.4399 46.0071 96.6116C46.264 96.7833 46.566 96.8749 46.875 96.875H95.3125C95.7269 96.875 96.1244 96.7104 96.4174 96.4174C96.7104 96.1243 96.875 95.7269 96.875 95.3125V46.875C96.8751 46.566 96.7836 46.2639 96.612 46.0069C96.4404 45.7499 96.1964 45.5496 95.911 45.4312ZM93.75 93.75H50.6469L93.75 50.6469V93.75Z" fill="#88530D"/>
<path d="M68.8687 86.536C68.987 86.8214 69.1874 87.0654 69.4443 87.237C69.7013 87.4086 70.0034 87.5001 70.3124 87.5H85.9374C86.3518 87.5 86.7493 87.3354 87.0423 87.0424C87.3353 86.7494 87.4999 86.3519 87.4999 85.9375V70.3125C87.4999 70.0035 87.4082 69.7015 87.2365 69.4446C87.0648 69.1877 86.8208 68.9875 86.5353 68.8693C86.2499 68.7511 85.9358 68.7201 85.6327 68.7804C85.3297 68.8406 85.0513 68.9894 84.8327 69.2078L69.2077 84.8328C68.9891 85.0514 68.8402 85.3298 68.7798 85.633C68.7195 85.9361 68.7504 86.2504 68.8687 86.536ZM84.3749 74.0844V84.375H74.0843L84.3749 74.0844Z" fill="#88530D"/>
<path d="M62.7234 60.1797C62.8624 60.4107 63.0587 60.6019 63.2933 60.7346C63.5279 60.8673 63.7929 60.937 64.0625 60.937C64.3321 60.937 64.5971 60.8673 64.8317 60.7346C65.0663 60.6019 65.2626 60.4107 65.4016 60.1797L70.0891 52.3672C70.2352 52.1242 70.3124 51.846 70.3125 51.5625V9.375C70.3125 7.7174 69.654 6.12769 68.4819 4.95558C67.3098 3.78348 65.7201 3.125 64.0625 3.125C62.4049 3.125 60.8152 3.78348 59.6431 4.95558C58.471 6.12769 57.8125 7.7174 57.8125 9.375V51.5625C57.8126 51.846 57.8898 52.1242 58.0359 52.3672L62.7234 60.1797ZM64.0625 56.3375L62.1344 53.125H65.9906L64.0625 56.3375ZM60.9375 9.375C60.9375 8.5462 61.2667 7.75134 61.8528 7.16529C62.4388 6.57924 63.2337 6.25 64.0625 6.25C64.8913 6.25 65.6862 6.57924 66.2722 7.16529C66.8583 7.75134 67.1875 8.5462 67.1875 9.375V12.5H60.9375V9.375ZM60.9375 15.625H67.1875V50H60.9375V15.625Z" fill="#88530D"/>
</svg>
