<svg width="17" height="17" viewBox="0 0 17 17" fill="none" xmlns="http://www.w3.org/2000/svg">
<path d="M5.10175 0.25C2.4385 0.25 0.25 2.4355 0.25 5.10175V11.8983C0.25 14.5615 2.4355 16.75 5.10175 16.75H11.8983C14.5615 16.75 16.75 14.5645 16.75 11.8983V5.1025C16.75 2.4385 14.5645 0.25 11.8983 0.25H5.10175ZM5.10175 1.75H11.8983C12.3386 1.74941 12.7747 1.8357 13.1816 2.00393C13.5885 2.17216 13.9583 2.41903 14.2696 2.73038C14.581 3.04174 14.8278 3.41147 14.9961 3.81839C15.1643 4.22531 15.2506 4.66143 15.25 5.10175V11.8983C15.2506 12.3386 15.1643 12.7747 14.9961 13.1816C14.8278 13.5885 14.581 13.9583 14.2696 14.2696C13.9583 14.581 13.5885 14.8278 13.1816 14.9961C12.7747 15.1643 12.3386 15.2506 11.8983 15.25H5.1025C4.66211 15.2507 4.22592 15.1645 3.81891 14.9963C3.4119 14.8281 3.04208 14.5812 2.73065 14.2699C2.41921 13.9585 2.17228 13.5888 2.004 13.1818C1.83572 12.7748 1.74941 12.3386 1.75 11.8983V5.1025C1.74931 4.66211 1.83553 4.22592 2.00371 3.81891C2.1719 3.4119 2.41875 3.04208 2.73012 2.73065C3.04148 2.41921 3.41125 2.17228 3.81822 2.004C4.22519 1.83572 4.66136 1.74941 5.10175 1.75ZM12.9295 3.391C12.8402 3.3906 12.7516 3.40791 12.669 3.44192C12.5864 3.47592 12.5113 3.52596 12.4481 3.58914C12.385 3.65231 12.3349 3.72738 12.3009 3.81C12.2669 3.89262 12.2496 3.98116 12.25 4.0705C12.25 4.4485 12.5515 4.75 12.9295 4.75C13.0189 4.7505 13.1075 4.73326 13.1902 4.6993C13.2729 4.66534 13.3481 4.61532 13.4114 4.55213C13.4746 4.48895 13.5247 4.41385 13.5588 4.33118C13.5928 4.24851 13.6101 4.15991 13.6097 4.0705C13.6101 3.98109 13.5928 3.89249 13.5588 3.80982C13.5247 3.72715 13.4746 3.65205 13.4114 3.58887C13.3481 3.52568 13.2729 3.47566 13.1902 3.4417C13.1075 3.40773 13.0189 3.3905 12.9295 3.391ZM8.5 4C6.025 4 4 6.025 4 8.5C4 10.975 6.025 13 8.5 13C10.975 13 13 10.975 13 8.5C13 6.025 10.975 4 8.5 4ZM8.5 5.5C10.1672 5.5 11.5 6.83275 11.5 8.5C11.5 10.1672 10.1672 11.5 8.5 11.5C6.83275 11.5 5.5 10.1672 5.5 8.5C5.5 6.83275 6.83275 5.5 8.5 5.5Z" fill="#FDFEFE" stroke="#FDFEFE" stroke-width="0.5"/>
</svg>
